<svg width="17" height="19" viewBox="0 0 17 19" fill="none" xmlns="http://www.w3.org/2000/svg">
<path fill-rule="evenodd" clip-rule="evenodd" d="M14.5 3.20567H2.5C1.80964 3.20567 1.25 3.74547 1.25 4.41135V16.5887C1.25 17.2545 1.80964 17.7943 2.5 17.7943H14.5C15.1904 17.7943 15.75 17.2545 15.75 16.5887V4.41135C15.75 3.74547 15.1904 3.20567 14.5 3.20567ZM2.5 2C1.11929 2 0 3.0796 0 4.41135V16.5887C0 17.9204 1.11929 19 2.5 19H14.5C15.8807 19 17 17.9204 17 16.5887V4.41135C17 3.0796 15.8807 2 14.5 2H2.5Z" fill="#00B8CC"/>
<path d="M4 0.625C4 0.279822 4.22386 0 4.5 0C4.77614 0 5 0.279822 5 0.625V4.375C5 4.72018 4.77614 5 4.5 5C4.22386 5 4 4.72018 4 4.375V0.625Z" fill="#00B8CC"/>
<path d="M11 0.625C11 0.279822 11.2239 0 11.5 0C11.7761 0 12 0.279822 12 0.625V4.375C12 4.72018 11.7761 5 11.5 5C11.2239 5 11 4.72018 11 4.375V0.625Z" fill="#00B8CC"/>
<path d="M1 5.35294C1 4.05345 2.10094 3 3.45902 3H13.541C14.8991 3 16 4.05345 16 5.35294V9H1V5.35294Z" fill="#00B8CC"/>
</svg>
