<svg width="12" height="9" viewBox="0 0 12 9" fill="none" xmlns="http://www.w3.org/2000/svg">
<path fill-rule="evenodd" clip-rule="evenodd" d="M0.0994347 3.38853L2.25994 1.25845C2.39252 1.12773 2.60748 1.12773 2.74006 1.25845L4.90057 3.38853C5.03314 3.51924 5.03314 3.73116 4.90057 3.86188C4.76799 3.99259 4.55303 3.99259 4.42045 3.86188L2.83949 2.30318L2.83949 8.85873H2.16051L2.16051 2.30318L0.579548 3.86188C0.446968 3.99259 0.232014 3.99259 0.0994347 3.86188C-0.0331449 3.73116 -0.0331449 3.51924 0.0994347 3.38853Z" fill="white"/>
<path fill-rule="evenodd" clip-rule="evenodd" d="M11.1818 6.44161L9.02131 8.57169C8.88873 8.7024 8.67377 8.7024 8.54119 8.57169L6.38069 6.44161C6.24811 6.3109 6.24811 6.09897 6.38069 5.96826C6.51327 5.83755 6.72822 5.83755 6.8608 5.96826L8.44176 7.52696L8.44176 0.971405L9.12074 0.971405L9.12074 7.52696L10.7017 5.96826C10.8343 5.83755 11.0492 5.83755 11.1818 5.96826C11.3144 6.09897 11.3144 6.3109 11.1818 6.44161Z" fill="white"/>
</svg>
