<svg width="8" height="12" viewBox="0 0 8 12" fill="none" xmlns="http://www.w3.org/2000/svg">
<path fill-rule="evenodd" clip-rule="evenodd" d="M5.54835 0.0994347L7.70886 2.25994C7.84144 2.39252 7.84144 2.60748 7.70886 2.74006L5.54835 4.90057C5.41577 5.03314 5.20082 5.03314 5.06824 4.90057C4.93566 4.76799 4.93566 4.55303 5.06824 4.42045L6.6492 2.83949H0V2.16051H6.6492L5.06824 0.579548C4.93566 0.446968 4.93566 0.232014 5.06824 0.0994347C5.20082 -0.0331449 5.41577 -0.0331449 5.54835 0.0994347Z" fill="white"/>
<path fill-rule="evenodd" clip-rule="evenodd" d="M2.45165 11.1804L0.291138 9.01984C0.158558 8.88726 0.158558 8.67231 0.291138 8.53973L2.45165 6.37922C2.58423 6.24664 2.79918 6.24664 2.93176 6.37922C3.06434 6.5118 3.06434 6.72675 2.93176 6.85933L1.3508 8.44029H8V9.11928H1.3508L2.93176 10.7002C3.06434 10.8328 3.06434 11.0478 2.93176 11.1804C2.79918 11.3129 2.58423 11.3129 2.45165 11.1804Z" fill="white"/>
</svg>
