<svg width="180" height="19" viewBox="0 0 180 19" fill="none" xmlns="http://www.w3.org/2000/svg">
<path d="M74.1583 9.22766C74.1583 12.9953 71.9319 18.3043 65.2525 18.3043C58.5731 18.3043 56.3467 12.9953 56.3467 9.22766C56.3467 5.45999 58.5731 0.151001 65.2525 0.151001C71.9319 0.151001 74.1583 5.45999 74.1583 9.22766ZM59.4295 9.22766C59.4295 12.0585 60.2858 17.1055 65.2525 17.1055C70.2192 17.1055 71.0755 12.139 71.0755 9.22766C71.0755 6.31628 70.2192 1.3498 65.2525 1.3498C60.2858 1.3498 59.4295 6.39677 59.4295 9.22766Z" fill="white"/>
<path d="M129.991 12.9953C129.991 14.3654 130.76 17.1055 134.101 17.1055C136.328 17.1055 137.869 15.9067 137.869 14.1942C137.869 11.7965 135.3 11.1115 133.416 10.4265C131.532 9.74145 127.593 8.7139 127.593 5.11749C127.593 3.74742 128.449 0.322266 133.93 0.322266C137.698 0.322266 139.924 2.37736 139.924 5.11749H137.527C137.527 3.91868 136.67 1.34981 133.759 1.34981C131.704 1.34981 130.333 2.54862 130.333 4.08994C130.333 6.48755 133.245 7.34384 135.129 8.02887C137.013 8.7139 140.609 9.74145 140.609 13.1666C140.609 17.4481 136.328 18.1331 133.93 18.1331C127.936 18.1331 127.422 14.1942 127.422 12.9953H129.991Z" fill="white"/>
<path d="M152.94 8.20014L161.504 17.7906H157.907L150.2 9.22769L158.763 0.664795H160.819L152.94 8.20014Z" fill="white"/>
<path d="M173.491 10.4265V17.7906H170.58V10.769L164.243 0.664795H167.497L172.806 9.22769L178.116 0.664795H180L173.491 10.4265Z" fill="white"/>
<path d="M5.83159 0.664795C11.4833 0.664795 12.8535 3.57618 12.8535 5.97379C12.8535 8.3714 11.4833 11.2828 5.83159 11.2828H2.92008V17.7906H0V0.664795H5.83159ZM5.83159 10.084C8.56327 10.084 9.9334 8.20014 9.9334 5.97379C9.9334 3.74744 8.56327 1.8636 5.82303 1.8636H2.91151V10.084H5.83159Z" fill="white"/>
<path d="M30.6568 1.8636H21.9223V8.02888H29.6292V9.22769H21.9223V16.5918H30.9993V17.7906H19.0107V0.664795H30.6568V1.8636Z" fill="white"/>
<path d="M92.3121 17.7906H80.666V0.664795H83.5775V16.5918H92.3138L92.3121 17.7906Z" fill="white"/>
<path d="M45.2145 10.5978C45.557 10.5978 50.3525 10.2552 50.3525 5.63127C50.3525 3.23366 48.8111 0.664795 43.3306 0.664795H37.165V17.7906H40.0766V1.8636H43.3306C45.8996 1.8636 47.441 3.57618 47.441 5.63127C47.441 7.68637 46.2421 9.57021 43.1593 9.57021H41.4467L47.7835 17.7906H51.0375L45.2145 10.5978Z" fill="white"/>
<path d="M109.953 17.7906H113.207L105.328 0.49353H104.13L96.0801 17.7906H97.6215L100.041 12.4816H107.534L109.953 17.7906ZM100.509 11.454L103.787 4.2612L107.065 11.454H100.509Z" fill="white"/>
<path d="M149.686 0.664795H146.774V17.7906H149.686V0.664795Z" fill="white"/>
</svg>
