<svg width="140" height="65" viewBox="0 0 140 65" fill="none" xmlns="http://www.w3.org/2000/svg">
<path d="M57.6782 44.654C57.6782 47.5433 55.9464 51.6147 50.7512 51.6147C45.556 51.6147 43.8242 47.5433 43.8242 44.654C43.8242 41.7646 45.556 37.6932 50.7512 37.6932C55.9464 37.6932 57.6782 41.7646 57.6782 44.654ZM46.222 44.654C46.222 46.8249 46.8881 50.6954 50.7512 50.6954C54.6143 50.6954 55.2804 46.8867 55.2804 44.654C55.2804 42.4213 54.6143 38.6126 50.7512 38.6126C46.8881 38.6126 46.222 42.483 46.222 44.654Z" fill="white"/>
<path d="M101.1 47.5432C101.1 48.5939 101.698 50.6952 104.297 50.6952C106.029 50.6952 107.227 49.7759 107.227 48.4625C107.227 46.6238 105.229 46.0985 103.764 45.5732C102.299 45.0478 99.2348 44.2598 99.2348 41.5018C99.2348 40.4511 99.9008 37.8244 104.164 37.8244C107.094 37.8244 108.826 39.4004 108.826 41.5018H106.961C106.961 40.5824 106.295 38.6124 104.03 38.6124C102.432 38.6124 101.366 39.5318 101.366 40.7138C101.366 42.5525 103.631 43.2091 105.096 43.7345C106.561 44.2598 109.359 45.0478 109.359 47.6745C109.359 50.9579 106.029 51.4832 104.164 51.4832C99.5012 51.4832 99.1016 48.4625 99.1016 47.5432H101.1Z" fill="white"/>
<path d="M118.952 43.8659L125.612 51.2206H122.815L116.82 44.6539L123.481 38.0871H125.079L118.952 43.8659Z" fill="white"/>
<path d="M134.936 45.5732V51.2206H132.671V45.8359L127.742 38.0871H130.273L134.403 44.6539L138.532 38.0871H139.998L134.936 45.5732Z" fill="white"/>
<path d="M4.53584 38.0871C8.93181 38.0871 9.9975 40.3198 9.9975 42.1585C9.9975 43.9972 8.93181 46.2299 4.53584 46.2299H2.27125V51.2206H0V38.0871H4.53584ZM4.53584 45.3106C6.66056 45.3106 7.72625 43.8659 7.72625 42.1585C7.72625 40.4512 6.66056 39.0065 4.52918 39.0065H2.26459V45.3106H4.53584Z" fill="white"/>
<path d="M23.8435 39.0065H17.0497V43.7345H23.0442V44.6539H17.0497V50.3013H24.1099V51.2206H14.7852V38.0871H23.8435V39.0065Z" fill="white"/>
<path d="M71.7927 51.2206H62.7344V38.0871H64.999V50.3013H71.7941L71.7927 51.2206Z" fill="white"/>
<path d="M35.1672 45.7046C35.4336 45.7046 39.1635 45.4419 39.1635 41.8958C39.1635 40.0572 37.9646 38.0871 33.7019 38.0871H28.9062V51.2206H31.1708V39.0065H33.7019C35.7 39.0065 36.8989 40.3198 36.8989 41.8958C36.8989 43.4719 35.9664 44.9165 33.5686 44.9165H32.2365L37.1653 51.2206H39.6964L35.1672 45.7046Z" fill="white"/>
<path d="M85.5245 51.2206H88.0555L81.9278 37.9558H80.9953L74.7344 51.2206H75.9333L77.8156 47.1493H83.6435L85.5245 51.2206ZM78.1792 46.3612L80.7289 40.8452L83.2785 46.3612H78.1792Z" fill="white"/>
<path d="M116.429 38.0871H114.164V51.2206H116.429V38.0871Z" fill="white"/>
<path d="M70.6207 2.74805e-07C68.0863 0.000994203 65.6356 0.895177 63.7112 2.52116C61.7867 4.14714 60.5151 6.39781 60.126 8.86695C59.7369 11.3361 60.2558 13.861 61.5891 15.9861C62.9225 18.1111 64.9823 19.6963 67.397 20.4554C66.7911 19.832 66.3843 19.0467 66.2273 18.1972C66.0702 17.3478 66.1697 16.4715 66.5135 15.6774C66.8573 14.8832 67.4302 14.2062 68.161 13.7303C68.8918 13.2544 69.7483 13.0007 70.624 13.0007C71.4998 13.0007 72.3563 13.2544 73.0871 13.7303C73.8179 14.2062 74.3908 14.8832 74.7346 15.6774C75.0784 16.4715 75.1779 17.3478 75.0208 18.1972C74.8638 19.0467 74.457 19.832 73.8511 20.4554C76.2663 19.6961 78.3266 18.1104 79.6599 15.9847C80.9931 13.859 81.5116 11.3333 81.1216 8.86371C80.7316 6.39413 79.4588 4.14342 77.5331 2.51796C75.6075 0.892499 73.1558 -0.000571941 70.6207 2.74805e-07Z" fill="white"/>
<path d="M59.9336 21.8147C59.9336 21.8147 62.6444 28.8936 70.6305 28.8936C78.6165 28.8936 81.3273 21.8147 81.3273 21.8147H59.9336Z" fill="white"/>
<path d="M32.028 63.3192C31.9677 63.4431 31.8851 63.5553 31.7842 63.6502C31.6694 63.7599 31.5399 63.8536 31.3993 63.9286C31.2423 64.0125 31.0754 64.0769 30.9024 64.1204C30.7144 64.1682 30.521 64.192 30.3269 64.1913C30.0422 64.1928 29.7601 64.1384 29.497 64.0311C29.2382 63.9254 29.0039 63.7691 28.8083 63.5714C28.6044 63.3633 28.4438 63.1179 28.3354 62.8491C28.1017 62.2429 28.1017 61.5732 28.3354 60.967C28.4433 60.6982 28.6035 60.4528 28.807 60.2447C29.0024 60.0465 29.2367 59.8896 29.4957 59.7837C29.7586 59.6757 30.0408 59.6208 30.3256 59.6221C30.5181 59.6209 30.71 59.6456 30.8957 59.6957C31.0666 59.7416 31.2316 59.8068 31.3873 59.8901C31.5263 59.9635 31.6541 60.0559 31.7669 60.1646C31.8612 60.2539 31.9395 60.3583 31.9987 60.4732L31.8548 60.9119C31.6122 60.5782 31.2637 60.3338 30.8645 60.2173C30.4652 60.1008 30.0379 60.1187 29.6502 60.2683C29.4487 60.349 29.267 60.4712 29.1173 60.6269C28.9658 60.7872 28.8489 60.9762 28.7737 61.1824C28.6123 61.6508 28.6123 62.1587 28.7737 62.6271C28.8492 62.8334 28.9666 63.0225 29.1187 63.1826C29.2683 63.3379 29.45 63.4597 29.6515 63.5399C29.8701 63.6278 30.1041 63.6725 30.3402 63.6712C30.6603 63.6773 30.9763 63.6003 31.2567 63.4479C31.5069 63.3129 31.722 63.1228 31.8855 62.8924L32.028 63.3192Z" fill="white"/>
<path d="M34.2148 59.6878L36.5887 59.6852V60.1974L34.7037 60.2L34.7051 61.5817L36.4022 61.5803V62.0925L34.7051 62.0939L34.7064 63.6068L36.5913 63.6055V64.1177L34.2188 64.119L34.2148 59.6878Z" fill="white"/>
<path d="M38.918 59.6839H39.4055L39.4095 63.6029L41.1932 63.6016L41.1945 64.1138L38.922 64.1165L38.918 59.6839Z" fill="white"/>
<path d="M43.2617 59.68L45.6355 59.6786V60.1909L43.7506 60.1922L43.7519 61.5751L45.449 61.5738V62.086L43.7519 62.0873L43.7533 63.599L45.6382 63.5977V64.1099L43.2657 64.1125L43.2617 59.68Z" fill="white"/>
<path d="M49.5585 61.9533C49.7242 62.1008 49.8685 62.2701 49.9875 62.4563C50.0923 62.6329 50.1453 62.8348 50.1407 63.0394C50.1429 63.1976 50.1135 63.3547 50.0541 63.5017C49.9983 63.6379 49.9128 63.7603 49.8036 63.8603C49.6913 63.9613 49.5601 64.0398 49.4173 64.0914C49.1048 64.1983 48.7656 64.2029 48.4502 64.1045C48.3126 64.0613 48.181 64.0013 48.0586 63.9259C47.9499 63.8593 47.8509 63.7784 47.7642 63.6856C47.6908 63.6103 47.6341 63.5209 47.5977 63.4229L47.7415 62.9291C47.8712 63.1466 48.0505 63.3314 48.265 63.4689C48.4746 63.5962 48.7169 63.6614 48.9631 63.6567C49.0568 63.6634 49.151 63.6518 49.2401 63.6225C49.3293 63.5932 49.4117 63.5468 49.4826 63.486C49.5402 63.4301 49.5854 63.3631 49.6155 63.2892C49.6455 63.2153 49.6597 63.1361 49.6571 63.0565C49.6585 62.9215 49.6165 62.7896 49.5372 62.6796C49.4566 62.5674 49.3617 62.4659 49.2548 62.3775C48.9662 62.1428 48.7375 61.9528 48.5688 61.8075C48.4 61.6621 48.2668 61.5418 48.1691 61.4463C48.0371 61.3202 47.9261 61.1744 47.8401 61.0142C47.7745 60.8794 47.7413 60.7316 47.7429 60.5821C47.7369 60.4493 47.7606 60.3167 47.8124 60.194C47.8642 60.0712 47.9428 59.9611 48.0426 59.8716C48.266 59.6881 48.5514 59.5943 48.8418 59.6089C49.0759 59.6059 49.3063 59.6663 49.5079 59.7836C49.6923 59.8853 49.8458 60.0335 49.9528 60.2131L49.8343 60.7069C49.7154 60.5444 49.5678 60.4043 49.3987 60.2932C49.229 60.1824 49.0294 60.1247 48.8259 60.1277C48.6739 60.121 48.5238 60.1619 48.3969 60.2446C48.3412 60.286 48.2968 60.3405 48.268 60.4031C48.2391 60.4658 48.2266 60.5345 48.2317 60.6032C48.2314 60.6638 48.2441 60.7238 48.269 60.7791C48.2945 60.8356 48.3272 60.8885 48.3663 60.9367C48.4049 60.9833 48.4467 61.0272 48.4915 61.0681C48.5355 61.1088 48.5768 61.1443 48.6141 61.1731L49.059 61.5304L49.3254 61.7458L49.4733 61.8692C49.507 61.8981 49.5363 61.9248 49.5612 61.9493" fill="white"/>
<path d="M51.8984 59.6733L55.298 59.6707V60.1711L53.8393 60.1724L53.8433 64.1046H53.3544L53.3518 60.1724L51.8984 60.1737V59.6733Z" fill="white"/>
<path d="M57.8365 59.6694H57.3477V64.102H57.8365V59.6694Z" fill="white"/>
<path d="M63.8965 64.0914H63.3703L62.944 63.0184H60.8273L60.409 64.0927H59.8828L61.6385 59.6588H62.1461L63.8965 64.0914ZM61.0338 62.5154H62.7429L61.8836 60.3562L61.0338 62.5154Z" fill="white"/>
<path d="M65.9297 59.6629L66.4186 59.6616L66.4212 63.5819L68.2063 63.5806V64.0928L65.9337 64.0941L65.9297 59.6629Z" fill="white"/>
<path d="M74.2025 59.6562C74.3893 59.6543 74.5749 59.6864 74.75 59.7508C74.9127 59.8095 75.0624 59.8987 75.1909 60.0135C75.3174 60.1305 75.4177 60.2723 75.4853 60.4298C75.5584 60.6028 75.5947 60.7888 75.5919 60.9762C75.5944 61.161 75.5596 61.3445 75.4893 61.5159C75.4239 61.6735 75.327 61.8165 75.2042 61.9362C75.0798 62.0558 74.9314 62.1484 74.7686 62.2081C74.5893 62.2739 74.3991 62.3064 74.2078 62.304H73.4498V64.0914H72.9609V59.6589L74.2025 59.6562ZM73.4512 60.1684V61.7983H74.2957C74.4033 61.7992 74.51 61.7783 74.609 61.7367C74.708 61.6951 74.7973 61.6338 74.8712 61.5567C74.9429 61.4804 74.999 61.3912 75.0364 61.294C75.1156 61.0916 75.1156 60.8673 75.0364 60.6649C74.9986 60.5676 74.942 60.4784 74.8699 60.4022C74.7981 60.3277 74.7121 60.2679 74.6168 60.2262C74.5151 60.1825 74.4053 60.1606 74.2944 60.1619L73.4512 60.1684Z" fill="white"/>
<path d="M77.7617 59.6536H78.9699C79.1375 59.6535 79.3041 59.6783 79.4642 59.7271C79.6232 59.7744 79.7718 59.8506 79.9024 59.9517C80.0337 60.0545 80.1398 60.1851 80.2128 60.3339C80.2936 60.5048 80.3333 60.6917 80.3287 60.8802C80.3309 61.036 80.3043 61.1909 80.2501 61.3373C80.2013 61.4681 80.1296 61.5894 80.0383 61.6958C79.9479 61.8019 79.8386 61.8909 79.7159 61.9585C79.5889 62.0273 79.4518 62.0765 79.3096 62.1043L80.4259 64.0914H79.8505L78.7715 62.1607H78.2519V64.0927H77.7631L77.7617 59.6536ZM78.2506 60.1658V61.6407H79.0139C79.1203 61.6408 79.226 61.624 79.3269 61.5908C79.4241 61.5606 79.5145 61.5125 79.5934 61.4489C79.6691 61.3865 79.7301 61.3085 79.7719 61.2204C79.8174 61.1215 79.8397 61.0138 79.8372 60.9052C79.8422 60.7109 79.77 60.5224 79.636 60.3798C79.5684 60.31 79.4866 60.2552 79.3958 60.219C79.3051 60.1827 79.2076 60.1659 79.1098 60.1697L78.2506 60.1658Z" fill="white"/>
<path d="M83.1217 59.6496H82.6328V64.0822H83.1217V59.6496Z" fill="white"/>
<path d="M85.1484 59.647H85.6813L87.0427 63.411L88.3788 59.6443H88.917L87.3185 64.0769L86.755 64.0782L85.1484 59.647Z" fill="white"/>
<path d="M91.442 59.6432H90.9531V64.0757H91.442V59.6432Z" fill="white"/>
<path d="M93.9805 59.6405H94.4694L94.472 63.5595L96.257 63.5582V64.0704L93.9845 64.0717L93.9805 59.6405Z" fill="white"/>
<path d="M98.3281 59.6366L100.701 59.6353V60.1475L98.817 60.1488V61.5317L100.514 61.5304V62.0426L98.8183 62.0439L98.8197 63.5569L100.703 63.5543L100.705 64.0665L98.3308 64.0691L98.3281 59.6366Z" fill="white"/>
<path d="M104.877 59.5644C105.07 59.5631 105.262 59.5879 105.447 59.6379C105.618 59.6839 105.783 59.7491 105.939 59.8323C106.078 59.9057 106.205 59.9982 106.317 60.1068C106.412 60.1961 106.49 60.3004 106.549 60.4154L106.405 60.8541C106.238 60.6108 106.012 60.4127 105.747 60.2781C105.482 60.1434 105.187 60.0764 104.889 60.0831C104.652 60.08 104.416 60.122 104.194 60.2066C103.992 60.284 103.81 60.4041 103.661 60.5586C103.511 60.7181 103.394 60.9063 103.32 61.1115C103.236 61.3441 103.195 61.5896 103.199 61.8365C103.195 62.0918 103.237 62.3458 103.324 62.5864C103.4 62.7946 103.52 62.9848 103.676 63.1446C103.829 63.2981 104.014 63.4169 104.218 63.4926C104.439 63.5743 104.673 63.6148 104.909 63.6121C105.136 63.6144 105.362 63.5756 105.575 63.4979C105.778 63.4225 105.963 63.3077 106.12 63.1603V62.3579H104.88V61.8457H106.612V63.3035C106.532 63.4325 106.429 63.5463 106.308 63.6397C106.178 63.7439 106.035 63.8321 105.883 63.9024C105.725 63.9754 105.559 64.0326 105.389 64.0731C104.94 64.1817 104.468 64.1477 104.039 63.9759C103.78 63.8715 103.545 63.715 103.351 63.5162C103.149 63.3091 102.99 63.0651 102.883 62.7978C102.654 62.1918 102.654 61.5245 102.883 60.9184C102.989 60.6499 103.147 60.4045 103.349 60.1961C103.544 59.9969 103.779 59.8391 104.038 59.7325C104.304 59.6227 104.589 59.5668 104.877 59.5683" fill="white"/>
<path d="M108.961 59.6287L111.335 59.626V60.1396L109.45 60.1409L109.451 61.5238L111.148 61.5225V62.0347L109.451 62.036L109.452 63.5477L111.337 63.5464V64.0586L108.965 64.0612L108.961 59.6287Z" fill="white"/>
</svg>
