<svg width="140" height="52" viewBox="0 0 140 52" fill="none" xmlns="http://www.w3.org/2000/svg">
<g clip-path="url(#clip0)">
<path d="M57.6787 44.9873C57.6787 47.8983 55.947 52 50.7519 52C45.5569 52 43.8252 47.8983 43.8252 44.9873C43.8252 42.0764 45.5569 37.9746 50.7519 37.9746C55.947 37.9746 57.6787 42.0764 57.6787 44.9873ZM46.2229 44.9873C46.2229 47.1745 46.8889 51.0738 50.7519 51.0738C54.6149 51.0738 55.281 47.2367 55.281 44.9873C55.281 42.738 54.6149 38.9008 50.7519 38.9008C46.8889 38.9008 46.2229 42.8002 46.2229 44.9873Z" fill="white"/>
<path d="M101.104 47.8983C101.104 48.9568 101.702 51.0739 104.301 51.0739C106.032 51.0739 107.231 50.1476 107.231 48.8245C107.231 46.9721 105.233 46.4428 103.768 45.9135C102.302 45.3843 99.2387 44.5904 99.2387 41.8118C99.2387 40.7532 99.9047 38.1069 104.167 38.1069C107.098 38.1069 108.83 39.6947 108.83 41.8118H106.965C106.965 40.8856 106.299 38.9008 104.034 38.9008C102.436 38.9008 101.37 39.827 101.37 41.0179C101.37 42.8703 103.634 43.5319 105.1 44.0611C106.565 44.5904 109.362 45.3843 109.362 48.0306C109.362 51.3385 106.032 51.8677 104.167 51.8677C99.5051 51.8677 99.1055 48.8245 99.1055 47.8983H101.104Z" fill="white"/>
<path d="M118.954 44.1935L125.614 51.6031H122.817L116.822 44.9874L123.483 38.3716H125.081L118.954 44.1935Z" fill="white"/>
<path d="M134.938 45.9136V51.6031H132.674V46.1782L127.745 38.3716H130.276L134.405 44.9874L138.535 38.3716H140L134.938 45.9136Z" fill="white"/>
<path d="M4.53568 38.3716C8.93149 38.3716 9.99715 40.6209 9.99715 42.4734C9.99715 44.3258 8.93149 46.5751 4.53568 46.5751H2.27117V51.6031H0V38.3716H4.53568ZM4.53568 45.6489C6.66032 45.6489 7.72598 44.1935 7.72598 42.4734C7.72598 40.7533 6.66032 39.2978 4.52902 39.2978H2.26451V45.6489H4.53568Z" fill="white"/>
<path d="M23.8442 39.2978H17.0506V44.0611H23.0449V44.9874H17.0506V50.6769H24.1106V51.6031H14.7861V38.3716H23.8442V39.2978Z" fill="white"/>
<path d="M71.7983 51.6031H62.7402V38.3716H65.0047V50.6769H71.7996L71.7983 51.6031Z" fill="white"/>
<path d="M35.1669 46.0459C35.4334 46.0459 39.1631 45.7813 39.1631 42.2087C39.1631 40.3563 37.9643 38.3716 33.7017 38.3716H28.9062V51.6031H31.1708V39.2978H33.7017C35.6998 39.2978 36.8986 40.6209 36.8986 42.2087C36.8986 43.7965 35.9662 45.252 33.5685 45.252H32.2364L37.165 51.6031H39.696L35.1669 46.0459Z" fill="white"/>
<path d="M85.5182 51.6031H88.0492L81.9217 38.2393H80.9892L74.7285 51.6031H75.9274L77.8096 47.5013H83.6374L85.5182 51.6031ZM78.1732 46.7074L80.7228 41.1502L83.2724 46.7074H78.1732Z" fill="white"/>
<path d="M116.423 38.3716H114.158V51.6031H116.423V38.3716Z" fill="white"/>
<path d="M70.6262 2.76857e-07C68.0918 0.00100163 65.6413 0.901861 63.7169 2.53998C61.7925 4.17811 60.521 6.44558 60.1319 8.93316C59.7427 11.4207 60.2617 13.9645 61.5949 16.1054C62.9282 18.2464 64.988 19.8433 67.4026 20.6081C66.7967 19.98 66.39 19.1889 66.2329 18.3331C66.0759 17.4773 66.1754 16.5945 66.5192 15.7944C66.8629 14.9943 67.4358 14.3122 68.1665 13.8328C68.8973 13.3534 69.7538 13.0978 70.6295 13.0978C71.5053 13.0978 72.3618 13.3534 73.0925 13.8328C73.8233 14.3122 74.3962 14.9943 74.7399 15.7944C75.0837 16.5945 75.1832 17.4773 75.0262 18.3331C74.8691 19.1889 74.4624 19.98 73.8565 20.6081C76.2716 19.8432 78.3318 18.2456 79.665 16.104C80.9983 13.9624 81.5167 11.4179 81.1267 8.92989C80.7367 6.44187 79.464 4.17435 77.5384 2.53676C75.6128 0.899163 73.1612 -0.000576211 70.6262 2.76857e-07Z" fill="white"/>
<path d="M59.9297 21.9775C59.9297 21.9775 62.6404 29.1093 70.6262 29.1093C78.6119 29.1093 81.3227 21.9775 81.3227 21.9775H59.9297Z" fill="white"/>
</g>
<defs>
<clipPath id="clip0">
<rect width="140" height="52" fill="white"/>
</clipPath>
</defs>
</svg>
