<svg width="207" height="97" viewBox="0 0 207 97" fill="none" xmlns="http://www.w3.org/2000/svg">
<path d="M85.2802 66.9648C85.2802 71.2978 82.7198 77.4034 75.0385 77.4034C67.3573 77.4034 64.7969 71.2978 64.7969 66.9648C64.7969 62.6318 67.3573 56.5262 75.0385 56.5262C82.7198 56.5262 85.2802 62.6318 85.2802 66.9648ZM68.3421 66.9648C68.3421 70.2205 69.3268 76.0247 75.0385 76.0247C80.7503 76.0247 81.735 70.313 81.735 66.9648C81.735 63.6165 80.7503 57.9048 75.0385 57.9048C69.3268 57.9048 68.3421 63.7091 68.3421 66.9648Z" fill="white"/>
<path d="M149.489 71.2978C149.489 72.8734 150.374 76.0247 154.216 76.0247C156.777 76.0247 158.549 74.646 158.549 72.6765C158.549 69.9191 155.595 69.1313 153.429 68.3435C151.262 67.5557 146.732 66.3739 146.732 62.2379C146.732 60.6622 147.717 56.7231 154.019 56.7231C158.352 56.7231 160.913 59.0866 160.913 62.2379H158.156C158.156 60.8592 157.171 57.9048 153.823 57.9048C151.459 57.9048 149.883 59.2835 149.883 61.0561C149.883 63.8135 153.232 64.7983 155.398 65.5861C157.565 66.3739 161.701 67.5557 161.701 71.4948C161.701 76.4186 156.777 77.2065 154.019 77.2065C147.126 77.2065 146.535 72.6765 146.535 71.2978H149.489Z" fill="white"/>
<path d="M175.882 65.7831L185.73 76.8126H181.593L172.73 66.9648L182.578 57.117H184.942L175.882 65.7831Z" fill="white"/>
<path d="M199.514 68.3435V76.8126H196.166V68.7374L188.879 57.117H192.621L198.727 66.9648L204.832 57.117H206.999L199.514 68.3435Z" fill="white"/>
<path d="M6.70633 57.117C13.2059 57.117 14.7815 60.4653 14.7815 63.2226C14.7815 65.98 13.2059 69.3283 6.70633 69.3283H3.35809V76.8126H0V57.117H6.70633ZM6.70633 67.9496C9.84776 67.9496 11.4234 65.7831 11.4234 63.2226C11.4234 60.6622 9.84776 58.4957 6.69648 58.4957H3.34824V67.9496H6.70633Z" fill="white"/>
<path d="M35.2562 58.4957H25.2115V65.5861H34.0745V66.9648H25.2115V75.4339H35.6502V76.8126H21.8633V57.117H35.2562V58.4957Z" fill="white"/>
<path d="M106.159 76.8126H92.7656V57.117H96.1139V75.4339H106.161L106.159 76.8126Z" fill="white"/>
<path d="M51.9952 68.5404C52.3891 68.5404 57.9038 68.1465 57.9038 62.8287C57.9038 60.0714 56.1312 57.117 49.8287 57.117H42.7383V76.8126H46.0865V58.4957H49.8287C52.783 58.4957 54.5556 60.4653 54.5556 62.8287C54.5556 65.1922 53.1769 67.3587 49.6317 67.3587H47.6622L54.9495 76.8126H58.6917L51.9952 68.5404Z" fill="white"/>
<path d="M126.446 76.8126H130.188L121.128 56.9201H119.749L110.492 76.8126H112.265L115.048 70.7069H123.665L126.446 76.8126ZM115.585 69.5252L119.355 61.2531L123.125 69.5252H115.585Z" fill="white"/>
<path d="M172.137 57.117H168.789V76.8126H172.137V57.117Z" fill="white"/>
<path d="M104.426 4.12109e-07C100.678 0.00149095 97.055 1.34244 94.2097 3.78084C91.3643 6.21923 89.4843 9.59442 88.909 13.2972C88.3336 17.0001 89.1009 20.7866 91.0722 23.9734C93.0436 27.1602 96.0891 29.5373 99.6593 30.6758C98.7634 29.7408 98.162 28.5632 97.9298 27.2893C97.6976 26.0154 97.8447 24.7014 98.353 23.5104C98.8613 22.3195 99.7083 21.3041 100.789 20.5905C101.869 19.8769 103.136 19.4964 104.431 19.4964C105.725 19.4964 106.992 19.8769 108.072 20.5905C109.153 21.3041 110 22.3195 110.508 23.5104C111.016 24.7014 111.163 26.0154 110.931 27.2893C110.699 28.5632 110.098 29.7408 109.202 30.6758C112.773 29.5371 115.819 27.1591 117.79 23.9713C119.761 20.7835 120.528 16.9959 119.951 13.2924C119.375 9.5889 117.493 6.21364 114.646 3.77603C111.799 1.33843 108.174 -0.000857706 104.426 4.12109e-07Z" fill="white"/>
<path d="M88.6094 32.7143C88.6094 32.7143 92.6174 43.3302 104.425 43.3302C116.232 43.3302 120.24 32.7143 120.24 32.7143H88.6094Z" fill="white"/>
<path d="M47.3515 94.9561C47.2623 95.1419 47.1402 95.31 46.9911 95.4524C46.8213 95.6169 46.6298 95.7574 46.4219 95.87C46.1898 95.9957 45.943 96.0923 45.6872 96.1575C45.4093 96.2292 45.1234 96.2649 44.8364 96.2639C44.4155 96.2662 43.9983 96.1845 43.6094 96.0236C43.2267 95.8652 42.8803 95.6307 42.5911 95.3342C42.2897 95.0222 42.0521 94.6542 41.8919 94.251C41.5464 93.3419 41.5464 92.3377 41.8919 91.4286C42.0515 91.0255 42.2883 90.6575 42.5891 90.3454C42.878 90.0481 43.2245 89.8129 43.6074 89.654C43.9961 89.4921 44.4133 89.4097 44.8344 89.4118C45.1191 89.4098 45.4028 89.4469 45.6774 89.5221C45.9301 89.5909 46.1739 89.6888 46.4042 89.8136C46.6097 89.9236 46.7987 90.0622 46.9655 90.2252C47.1048 90.3592 47.2207 90.5157 47.3082 90.6881L47.0955 91.3459C46.7367 90.8456 46.2215 90.4791 45.6312 90.3043C45.0409 90.1295 44.4092 90.1565 43.8359 90.3808C43.5379 90.5018 43.2693 90.6851 43.048 90.9185C42.8239 91.1589 42.6511 91.4423 42.5399 91.7516C42.3013 92.4541 42.3013 93.2157 42.5399 93.9181C42.6516 94.2276 42.8252 94.511 43.05 94.7512C43.2713 94.9841 43.5399 95.1668 43.8378 95.287C44.161 95.4189 44.507 95.4858 44.8561 95.4839C45.3293 95.493 45.7966 95.3775 46.2111 95.1491C46.581 94.9466 46.8991 94.6615 47.1408 94.316L47.3515 94.9561Z" fill="white"/>
<path d="M50.5898 89.5103L54.0996 89.5063V90.2744L51.3127 90.2784L51.3146 92.3504L53.8238 92.3484V93.1165L51.3146 93.1185L51.3166 95.3874L54.1035 95.3854V96.1536L50.5958 96.1555L50.5898 89.5103Z" fill="white"/>
<path d="M57.5391 89.5043H58.2599L58.2658 95.3815L60.9031 95.3795L60.905 96.1476L57.545 96.1516L57.5391 89.5043Z" fill="white"/>
<path d="M63.9727 89.4985L67.4824 89.4965V90.2646L64.6955 90.2666L64.6975 92.3405L67.2067 92.3386V93.1067L64.6975 93.1086L64.6994 95.3756L67.4863 95.3736V96.1418L63.9786 96.1457L63.9727 89.4985Z" fill="white"/>
<path d="M73.2781 92.9078C73.523 93.129 73.7364 93.3828 73.9123 93.6621C74.0672 93.927 74.1457 94.2297 74.1388 94.5366C74.1421 94.7738 74.0986 95.0094 74.0108 95.2299C73.9283 95.4341 73.8019 95.6177 73.6405 95.7675C73.4744 95.9191 73.2804 96.0368 73.0693 96.1142C72.6072 96.2744 72.1058 96.2813 71.6394 96.1339C71.436 96.0691 71.2415 95.9791 71.0604 95.866C70.8997 95.7661 70.7533 95.6448 70.6251 95.5056C70.5167 95.3927 70.4328 95.2586 70.3789 95.1117L70.5916 94.3711C70.7834 94.6973 71.0484 94.9744 71.3657 95.1806C71.6755 95.3716 72.0338 95.4694 72.3977 95.4623C72.5363 95.4723 72.6755 95.4549 72.8073 95.411C72.9392 95.367 73.061 95.2974 73.1658 95.2062C73.251 95.1225 73.3179 95.0221 73.3623 94.9112C73.4067 94.8004 73.4276 94.6815 73.4238 94.5622C73.4259 94.3598 73.3638 94.1619 73.2466 93.9969C73.1273 93.8287 72.987 93.6764 72.829 93.5439C72.4023 93.192 72.0642 92.9071 71.8147 92.6891C71.5652 92.4712 71.3683 92.2906 71.2238 92.1475C71.0287 91.9584 70.8645 91.7397 70.7374 91.4995C70.6404 91.2974 70.5912 91.0757 70.5936 90.8515C70.5847 90.6523 70.6199 90.4535 70.6964 90.2694C70.773 90.0853 70.8892 89.9202 71.0367 89.786C71.3671 89.5108 71.789 89.3701 72.2185 89.3921C72.5645 89.3875 72.9052 89.4782 73.2032 89.6541C73.4758 89.8065 73.7029 90.0288 73.8611 90.2981L73.6858 91.0386C73.51 90.795 73.2918 90.5848 73.0417 90.4182C72.7909 90.2521 72.4957 90.1656 72.1948 90.1701C71.9702 90.16 71.7482 90.2214 71.5606 90.3454C71.4782 90.4074 71.4126 90.4891 71.37 90.5831C71.3273 90.677 71.3089 90.7802 71.3164 90.8831C71.3159 90.9739 71.3347 91.0639 71.3716 91.147C71.4092 91.2316 71.4575 91.311 71.5153 91.3833C71.5724 91.4532 71.6343 91.519 71.7005 91.5803C71.7655 91.6413 71.8265 91.6945 71.8817 91.7378L72.5395 92.2736L72.9334 92.5966L73.152 92.7817C73.2019 92.825 73.2453 92.8651 73.282 92.9018" fill="white"/>
<path d="M76.7305 89.4886L81.7568 89.4847V90.2351L79.6001 90.2371L79.606 96.1339H78.8832L78.8793 90.2371L76.7305 90.239V89.4886Z" fill="white"/>
<path d="M85.5197 89.4827H84.7969V96.1299H85.5197V89.4827Z" fill="white"/>
<path d="M94.4733 96.1142H93.6954L93.0651 94.505H89.9355L89.317 96.1161H88.5391L91.1349 89.4669H91.8853L94.4733 96.1142ZM90.2408 93.7507H92.7677L91.4973 90.5128L90.2408 93.7507Z" fill="white"/>
<path d="M97.4727 89.4729L98.1955 89.4709L98.1994 95.35L100.839 95.348V96.1162L97.4786 96.1181L97.4727 89.4729Z" fill="white"/>
<path d="M109.718 89.463C109.995 89.4601 110.269 89.5082 110.528 89.6048C110.769 89.6929 110.99 89.8266 111.18 89.9987C111.367 90.1742 111.515 90.3869 111.615 90.623C111.723 90.8825 111.777 91.1614 111.773 91.4424C111.776 91.7196 111.725 91.9948 111.621 92.2519C111.524 92.4882 111.381 92.7025 111.2 92.8821C111.016 93.0614 110.796 93.2003 110.555 93.2898C110.29 93.3885 110.009 93.4372 109.726 93.4336H108.606V96.1142H107.883V89.4669L109.718 89.463ZM108.608 90.2311V92.6753H109.856C110.015 92.6767 110.173 92.6453 110.32 92.5829C110.466 92.5205 110.598 92.4286 110.707 92.3129C110.813 92.1986 110.896 92.0648 110.951 91.919C111.069 91.6155 111.069 91.2792 110.951 90.9756C110.895 90.8296 110.812 90.6959 110.705 90.5817C110.599 90.4699 110.472 90.3802 110.331 90.3178C110.181 90.2522 110.018 90.2193 109.854 90.2213L108.608 90.2311Z" fill="white"/>
<path d="M114.969 89.459H116.755C117.003 89.459 117.249 89.4962 117.486 89.5693C117.721 89.6402 117.941 89.7545 118.134 89.9061C118.328 90.0603 118.485 90.2562 118.593 90.4793C118.712 90.7355 118.771 91.0159 118.764 91.2986C118.767 91.5322 118.728 91.7645 118.648 91.984C118.576 92.1802 118.47 92.3622 118.335 92.5217C118.201 92.6808 118.04 92.8143 117.858 92.9156C117.67 93.0188 117.468 93.0925 117.257 93.1342L118.908 96.1142H118.057L116.462 93.2189H115.694V96.1161H114.971L114.969 89.459ZM115.692 90.2272V92.439H116.82C116.977 92.4392 117.134 92.414 117.283 92.3641C117.427 92.319 117.56 92.2468 117.677 92.1514C117.789 92.0579 117.879 91.9409 117.941 91.8087C118.008 91.6604 118.041 91.4988 118.037 91.336C118.045 91.0447 117.938 90.7619 117.74 90.5482C117.64 90.4435 117.519 90.3613 117.385 90.3069C117.251 90.2526 117.107 90.2274 116.962 90.2331L115.692 90.2272Z" fill="white"/>
<path d="M122.895 89.4531H122.172V96.1004H122.895V89.4531Z" fill="white"/>
<path d="M125.902 89.4492H126.69L128.703 95.0939L130.679 89.4453H131.474L129.111 96.0925L128.278 96.0945L125.902 89.4492Z" fill="white"/>
<path d="M135.207 89.4433H134.484V96.0905H135.207V89.4433Z" fill="white"/>
<path d="M138.945 89.4393H139.668L139.672 95.3165L142.311 95.3145V96.0826L138.951 96.0846L138.945 89.4393Z" fill="white"/>
<path d="M145.379 89.4335L148.887 89.4315V90.1996L146.102 90.2016V92.2755L148.611 92.2736V93.0417L146.104 93.0436L146.106 95.3126L148.891 95.3086L148.893 96.0768L145.383 96.0807L145.379 89.4335Z" fill="white"/>
<path d="M155.07 89.3251C155.355 89.3233 155.639 89.3604 155.913 89.4354C156.166 89.5044 156.41 89.6022 156.64 89.7269C156.845 89.8371 157.033 89.9757 157.199 90.1386C157.339 90.2725 157.455 90.4289 157.542 90.6014L157.329 91.2592C157.082 90.8944 156.748 90.5974 156.356 90.3954C155.964 90.1934 155.528 90.0929 155.088 90.1031C154.737 90.0985 154.387 90.1613 154.06 90.2883C153.762 90.4043 153.493 90.5845 153.272 90.8161C153.049 91.0554 152.878 91.3375 152.768 91.6453C152.644 91.9941 152.583 92.3623 152.589 92.7325C152.582 93.1154 152.645 93.4963 152.774 93.8571C152.887 94.1694 153.064 94.4545 153.294 94.6941C153.52 94.9245 153.793 95.1026 154.095 95.2161C154.422 95.3386 154.769 95.3993 155.117 95.3953C155.453 95.3987 155.787 95.3406 156.102 95.224C156.402 95.1109 156.676 94.9388 156.908 94.7178V93.5144H155.074V92.7463H157.635V94.9325C157.516 95.1259 157.364 95.2966 157.185 95.4367C156.993 95.5929 156.782 95.7251 156.557 95.8306C156.323 95.9402 156.078 96.0259 155.826 96.0866C155.163 96.2494 154.464 96.1984 153.831 95.9409C153.448 95.7843 153.101 95.5496 152.813 95.2515C152.515 94.9409 152.28 94.5749 152.122 94.1742C151.782 93.2654 151.782 92.2646 152.122 91.3557C152.278 90.953 152.513 90.585 152.811 90.2725C153.1 89.9738 153.446 89.7372 153.829 89.5772C154.222 89.4126 154.644 89.3288 155.07 89.331" fill="white"/>
<path d="M161.094 89.4216L164.603 89.4177V90.1878L161.817 90.1898L161.819 92.2637L164.328 92.2617V93.0299L161.819 93.0318L161.821 95.2988L164.607 95.2968V96.0649L161.1 96.0689L161.094 89.4216Z" fill="white"/>
</svg>
